# xmcd
#
# Track frame offsets:
#	150
#	19940
#	38532
#	55501
#	73678
#	93785
#	117931
#	136641
#	159433
#	183246
#	201763
#	221604
#	240437
#
# Disc length: 3425 seconds
#
# Revision: 1
# Processed by: cddbd v1.5.1PL0 Copyright (c) Steve Scherf et al.
# Submitted via: audiograbber 1.82.01
#
DISCID=9f0d5f0d
DTITLE=Luiz Marenco - Interior
DYEAR=2002
DGENRE=Gaúcho
TTITLE0=Sovando Um Pelego
TTITLE1=Firmando o Garrão
TTITLE2=Meu Peito Tem Um Rincão
TTITLE3=Um Gaúcho Vem da Fronteira
TTITLE4=Gateada Madrinha
TTITLE5=Os Silêncios da Janela do Povoado
TTITLE6=Milonga da Alma
TTITLE7=Os da Última Tropa
TTITLE8=Interior
TTITLE9=Fundo de Campo
TTITLE10=Todo o Meu Canto
TTITLE11=Botando Um Pealo
TTITLE12=Bandeira de Guerra
EXTD=
EXTT0=
EXTT1=
EXTT2=
EXTT3=
EXTT4=
EXTT5=
EXTT6=
EXTT7=
EXTT8=
EXTT9=
EXTT10=
EXTT11=
EXTT12=
PLAYORDER=
